<?xml version="1.0" encoding="UTF-8"?>
<svg width="196px" height="196px" viewBox="0 0 196 196" version="1.1" xmlns="http://www.w3.org/2000/svg" xmlns:xlink="http://www.w3.org/1999/xlink">
    <title>Group</title>
    <g id="Page-1" stroke="none" stroke-width="1" fill="none" fill-rule="evenodd">
        <g id="Group" fill="#4F46E5" fill-rule="nonzero">
            <path d="M98,0 C152.1254,0 196,43.8745642 196,97.99992 C196,152.125276 152.1254,195.99992 98,195.99992 C82.8601388,196.019264 67.9233106,192.51656 54.3704,185.768648 C50.9025398,183.972279 46.8967305,183.508596 43.1102,184.465249 L21.2954,190.306045 C16.9008984,191.478647 12.2145763,190.219548 8.99948346,187.002437 C5.78439063,183.785326 4.52823608,179.098218 5.7036,174.704457 L11.5346,152.889675 C12.544,149.116678 11.9658,145.128082 10.2214,141.639284 C3.6848,128.497495 0,113.679907 0,97.99992 C0,43.8745642 43.8746,0 98,0 Z M113.404275,41.5058655 C107.000315,41.5058655 104.128236,45.8510069 102.032394,58.7700435 C100.984473,65.2101638 100.247048,72.7365695 99.1215031,88.8368704 C96.4434834,126.779266 94.5417012,140.357833 91.3203151,144.586587 C90.7769488,145.284913 90.0007112,145.866852 89.5737805,145.866852 C89.3623843,145.866852 89.1539762,145.826778 88.9486559,145.74695 C87.356672,143.088737 86.012368,137.600019 84.9768558,129.478575 C84.7169064,127.573064 84.2635064,123.110759 83.8246027,118.410112 L83.7425289,117.526514 C83.6198253,116.198625 83.4992965,114.863345 83.3855686,113.572254 C81.4391528,91.6098913 80.978941,86.6897946 80.0504346,82.3485182 L79.9840898,82.042822 C79.9393074,81.8393796 79.8933861,81.636361 79.8461222,81.4320508 L79.774194,81.1244021 C79.6890436,80.763848 79.5994697,80.3967107 79.5043806,80.0137951 C78.3200494,75.1374864 76.5211015,71.7766081 74.0628826,69.8418883 C72.7258695,68.1748983 71.1337131,67.0777124 69.275167,66.5292246 C66.8688304,65.7921024 66.1702166,65.7921024 63.76388,66.5292246 C60.3096226,67.5379182 57.7868504,71.1071415 56.273187,77.081711 C55.2252663,81.0776893 54.4878405,86.0823611 53.5175435,96.0141129 C52.5084346,106.527803 51.6933851,112.036822 50.7230881,115.140494 C49.6751674,118.59333 48.9765535,119.563228 47.7345733,119.408044 C47.6835051,119.402525 47.6328295,119.394308 47.5825413,119.383382 C46.9827752,118.208509 46.4510643,116.437558 45.9709159,114.037804 C44.8841832,108.606378 44.1467575,101.933482 42.8659654,85.3288342 C41.8758312,72.9572509 41.6911633,71.1812414 41.0790613,70.4937741 L41.0334927,70.4452764 C40.9871254,70.3984454 40.9383087,70.356201 40.8865595,70.3148187 C40.6000966,70.0821634 40.2475609,69.9155536 39.7908534,69.8035642 C39.6698598,69.2833863 39.5447051,69.007104 39.3936926,68.8167462 L39.3496496,68.7643631 C39.3272556,68.7392118 39.3042895,68.7155176 39.2806909,68.6928148 L39.2326325,68.6485932 L39.1571477,68.5854076 C38.5361577,68.0810609 37.6046725,67.8870813 35.9745735,67.8870813 C34.6937815,67.8870813 33.3353657,68.042265 32.9472469,68.2750404 C32.5591281,68.4690199 32.1321974,69.1673462 31.9769498,69.7880807 C31.81394,70.5213233 32.5828033,81.3488726 33.5114164,92.1840259 L33.6316289,93.576365 C33.9945428,97.7487438 34.3763003,101.85794 34.7325934,105.32513 C35.6640785,114.51976 36.7508112,119.058881 38.8466527,122.589308 C39.6142654,123.860144 40.5412561,124.923502 41.5829541,125.757631 C44.1008631,128.870644 47.7515114,130.249621 51.5210148,129.400983 C54.0049751,128.85784 56.3336879,127.267208 57.8861632,125.133433 C58.5071533,124.279923 59.4774503,122.184945 60.0596285,120.439129 C61.4180443,116.326763 62.4271532,110.158214 63.2033908,101.584319 C64.5618066,86.3763236 65.415668,80.6345296 66.7352719,78.0352039 C67.3748947,76.8204209 67.9559561,76.2144246 68.5363619,76.217215 C69.9933401,79.1397084 70.8369697,85.4500047 72.9234838,108.428803 C73.0118143,109.400038 73.1022215,110.379162 73.1938031,111.357498 L73.2857428,112.335251 C73.7931968,117.707912 74.3270789,122.969274 74.7372682,126.675908 L74.8459585,127.647177 C75.0099108,129.094704 75.1491444,130.238791 75.2521966,130.969224 C76.8880866,142.485324 79.4603931,149.383672 83.3330166,152.447729 C84.2785317,153.614203 85.3154531,154.487585 86.4517072,155.083873 C87.3443805,155.510628 88.8192319,156.014974 89.7895289,156.131362 C93.670717,156.635709 97.3966575,155.045077 99.6865585,151.941404 C101.355469,149.652446 103.21844,144.996937 104.188737,140.574204 C105.624776,134.017696 107.177251,117.762211 109.583588,84.7468956 C110.437449,73.1469198 111.601806,61.8185154 112.339232,58.3268838 C113.207851,53.954567 114.175653,51.8625238 115.302095,51.9120773 C116.590189,54.8188663 117.499269,62.0793343 118.915562,79.2930776 C119.458928,85.9271775 120.157542,93.2596036 120.468037,95.587358 C121.089027,100.39805 122.253384,104.820784 123.41774,107.109742 C124.205904,108.661548 125.273319,109.978291 126.574763,111.041892 C127.75708,112.492098 129.255251,113.641756 131.007746,114.464559 C132.987152,115.356865 133.996261,115.550845 136.363786,115.550845 C139.934479,115.550845 142.107944,114.658539 144.824775,112.136805 C147.075865,110.00303 148.589528,106.97695 149.365765,102.903379 C149.567337,101.752017 149.854367,99.0416729 150.084195,96.1825263 L150.142759,95.4342137 L150.198164,94.6847134 C150.233924,94.185887 150.267203,93.6899776 150.297251,93.204403 C150.879429,83.8157939 151.461607,81.4880395 153.673884,79.7422238 C154.954676,78.7335302 157.322201,78.6559384 160.504775,79.5482442 C162.290122,80.052591 162.988736,80.0913869 163.764973,79.7422238 C165.705567,78.8887138 166.559429,74.5823683 165.123389,73.1469198 C164.861845,72.8854836 164.451747,72.6258807 163.936549,72.3796678 C163.819502,71.9948883 163.640474,71.6639045 163.393977,71.4175087 C162.190809,70.2148357 157.843878,69.0509585 154.58368,69.0509585 C149.538136,69.0509585 145.618136,71.2235292 143.444671,75.1807116 C141.736948,78.32318 140.921898,82.2803623 140.456156,90.0783394 L140.412183,90.7847299 C140.176953,94.4360209 139.823405,98.0561883 139.641106,99.0401936 C139.136552,101.755907 137.972195,104.200049 136.807839,104.937171 C135.632479,105.730213 134.14567,105.63377 132.835843,104.782525 C130.848218,101.99462 130.118203,97.2951627 128.795469,80.2853664 C127.242994,60.0726996 126.272697,54.0205383 123.86636,49.1710501 C122.960708,47.3249895 121.884432,45.9256145 120.604077,44.9506297 C118.781215,42.6190267 116.433649,41.5058655 113.404275,41.5058655 Z" id="Combined-Shape"></path>
        </g>
    </g>
</svg>